# xmcd CD database file
#
# Track frame offsets:
#	150
#	17168
#	32143
#	49380
#	64377
#	82053
#	101717
#	119124
#	144453
#	159747
#	174399
#	191803
#	207601
#
# Disc length: 2940 seconds
#
# Revision: 0
# Processed by: cddbd v1.5.2PL0 Copyright (c) Steve Scherf et al.
# Submitted via: CDex 1.70beta2
#
DISCID=cd0b7a0d
DTITLE=On The Level - Bottom of the bottle
DYEAR=2007
DGENRE=Blues
TTITLE0=Break the blues
TTITLE1=Why won't you talk
TTITLE2=Morning Comes
TTITLE3=I don't know what
TTITLE4=No more, no more
TTITLE5=Rolling stone
TTITLE6=Deja vu
TTITLE7=Hallelujah
TTITLE8=Life
TTITLE9=Botom of the bottle
TTITLE10=Magic Carpet
TTITLE11=Chemical assistance
TTITLE12=Wet boogie
EXTD=YEAR: 2007
EXTT0=
EXTT1=
EXTT2=
EXTT3=
EXTT4=
EXTT5=
EXTT6=
EXTT7=
EXTT8=
EXTT9=
EXTT10=
EXTT11=
EXTT12=
PLAYORDER=
